<svg xmlns="http://www.w3.org/2000/svg" shape-rendering="geometricPrecision" image-rendering="optimizeQuality" fill-rule="evenodd" viewBox="0 0 512 497.047" xmlns:v="https://vecta.io/nano"><path fill-rule="nonzero" d="M410.669 450.738c-14.354 0-27.353-5.823-36.759-15.228s-15.228-22.407-15.228-36.759a51.763 51.763 0 0 1 7.274-26.534l-18.566-15.785c5.444-3.628 10.123-7.67 14.223-12.123l16.427 13.968a51.784 51.784 0 0 1 32.629-11.515c14.353 0 27.354 5.823 36.759 15.228s15.228 22.406 15.228 36.761-5.822 27.354-15.228 36.759-22.406 15.228-36.759 15.228zM235.327 199.095h45.431l.754 55.744-24.381-14.874-22.908 14.51 1.104-55.38zm-51.541-31.062h148.151c5.576 0 10.635 2.271 14.296 5.932a20.175 20.175 0 0 1 5.93 14.297v123.311c0 5.517-2.283 10.572-5.946 14.249l-.031.031c-3.693 3.67-8.738 5.946-14.249 5.946H183.786a20.174 20.174 0 0 1-14.297-5.93l-.468-.515c-3.385-3.617-5.462-8.469-5.462-13.781V188.262c0-5.567 2.28-10.628 5.939-14.287s8.725-5.942 14.288-5.942zm148.151 14.73H183.786c-1.494 0-2.87.626-3.872 1.628a5.48 5.48 0 0 0-1.625 3.871v123.311c0 1.392.517 2.669 1.362 3.64l.254.24a5.486 5.486 0 0 0 3.881 1.616h148.151a5.463 5.463 0 0 0 3.864-1.602l.03-.03a5.462 5.462 0 0 0 1.603-3.864V188.262a5.49 5.49 0 0 0-1.617-3.88 5.481 5.481 0 0 0-3.88-1.619zM206.786 378.948l-9.799 22.747a53.26 53.26 0 0 1 2.064 1.614c10.453 8.602 17.627 21.203 19.041 35.753 1.407 14.515-3.208 28.245-11.807 38.694a52.76 52.76 0 0 1-35.753 19.041c-14.515 1.407-28.245-3.207-38.694-11.806s-17.627-21.203-19.041-35.753c-1.407-14.516 3.207-28.246 11.807-38.695s21.202-17.627 35.752-19.041a52.68 52.68 0 0 1 20.085 1.913l7.923-18.391c5.576 1.709 11.697 3.014 18.422 3.924zm182.912-183.85l18.09-6.834a52.814 52.814 0 0 1-1.397-17.359c.004-.566.06-1.12.163-1.656a52.741 52.741 0 0 1 57.768-46.567 52.769 52.769 0 0 1 35.715 19.108c8.567 10.459 13.144 24.205 11.7 38.753a52.764 52.764 0 0 1-19.109 35.715 52.731 52.731 0 0 1-37.947 11.77 9.297 9.297 0 0 1-1.656-.163c-14.198-1.638-26.462-8.758-34.865-19.016a53.068 53.068 0 0 1-2.793-3.733l-18.41 6.952a89.68 89.68 0 0 0-7.259-16.97zm-96.656-91.24l-.007.056-3.946 26.498a223.526 223.526 0 0 0-18.237-2.895l3.829-25.713a51.79 51.79 0 0 1-21.864-13.055c-10.153-10.153-15.228-23.458-15.228-36.762a51.83 51.83 0 0 1 14.702-36.186l.526-.573C262.965 5.08 276.272 0 289.576 0a51.78 51.78 0 0 1 36.193 14.707l.566.521c10.148 10.148 15.228 23.457 15.228 36.759 0 13.281-5.08 26.571-15.228 36.724l-.038.038a51.762 51.762 0 0 1-33.255 15.109zm-192.294 182.32l29.581-5.76c.896 6.405 1.875 12.472 2.967 18.221l-29.34 5.713a51.787 51.787 0 0 1-6.61 25.129 9.07 9.07 0 0 1-.732 1.27c-7.195 12.088-18.559 20.217-31.19 23.601-12.538 3.359-26.352 2.029-38.582-4.746a9.324 9.324 0 0 1-1.666-.962 51.822 51.822 0 0 1-23.401-31.053C-1.663 304.76-.2 290.594 6.983 278.154c7.176-12.427 18.71-20.772 31.551-24.212 12.769-3.422 26.855-1.989 39.251 5.103l.189.105a51.762 51.762 0 0 1 22.774 27.028zm55.237-125.617l-21.009-17.482a49.98 49.98 0 0 1-3.676 2.545c-10.882 6.836-24.361 9.524-37.854 6.447-13.532-3.086-24.528-11.359-31.36-22.229-6.836-10.877-9.523-24.361-6.449-37.854 3.086-13.53 11.362-24.528 22.229-31.36 10.883-6.836 24.361-9.523 37.854-6.447 13.528 3.084 24.526 11.357 31.36 22.227 6.836 10.88 9.529 24.361 6.449 37.856a50.165 50.165 0 0 1-6.179 15.165l22.716 18.904a99.057 99.057 0 0 0-14.081 12.228zM97.49 134.09a31.707 31.707 0 0 0 23.99-4.062c6.885-4.327 12.124-11.278 14.068-19.807a31.715 31.715 0 0 0-4.064-23.993c-4.328-6.885-11.276-12.121-19.807-14.066a31.71 31.71 0 0 0-23.991 4.063c-6.885 4.327-12.123 11.277-14.068 19.807a31.72 31.72 0 0 0 4.064 23.99c4.326 6.885 11.276 12.123 19.808 14.068zM35.238 333.208c7.996 4.6 17.124 5.527 25.42 3.308 8.111-2.171 15.406-7.374 20.05-15.101.175-.353.37-.693.59-1.017 4.374-7.88 5.224-16.807 3.051-24.931-2.171-8.102-7.37-15.401-15.089-20.045a9.264 9.264 0 0 1-1.027-.595c-7.88-4.374-16.809-5.224-24.934-3.048-8.284 2.22-15.731 7.604-20.356 15.617-4.619 8.001-5.553 17.135-3.331 25.43 2.224 8.303 7.597 15.747 15.582 20.357l.044.025zM265.441 28.719c-6.242 6.458-9.363 14.855-9.363 23.268 0 8.574 3.273 17.152 9.81 23.69s15.115 9.808 23.688 9.808c8.585 0 17.168-3.263 23.706-9.789 6.527-6.538 9.792-15.121 9.792-23.709 0-8.571-3.272-17.149-9.81-23.688l-.41-.437c-6.482-6.245-14.877-9.373-23.278-9.373-8.573 0-17.15 3.273-23.688 9.81l-.447.42zm167.016 168.433c5.587 6.822 13.767 11.52 23.2 12.461l.026.003c9.454.938 18.414-2.054 25.248-7.654s11.527-13.784 12.466-23.226c.938-9.455-2.055-18.412-7.656-25.249-5.595-6.828-13.784-11.526-23.227-12.465-9.454-.939-18.414 2.057-25.248 7.656-6.824 5.59-11.52 13.767-12.461 23.203l-.002.025c-.941 9.45 2.054 18.412 7.654 25.246zM143.535 470.764a34.413 34.413 0 0 0 25.265 7.693c9.456-.917 17.657-5.592 23.259-12.398a34.412 34.412 0 0 0 7.693-25.264 34.33 34.33 0 0 0-12.398-23.259 34.41 34.41 0 0 0-25.265-7.694c-9.456.918-17.657 5.593-23.259 12.398a34.414 34.414 0 0 0-7.693 25.265c.918 9.456 5.592 17.657 12.398 23.259zm243.447-48.326c6.06 6.061 14.436 9.811 23.687 9.811s17.627-3.75 23.688-9.811a33.4 33.4 0 0 0 9.811-23.687c0-9.251-3.751-17.63-9.811-23.69s-14.438-9.811-23.688-9.811-17.627 3.75-23.687 9.811-9.811 14.439-9.811 23.69 3.75 17.627 9.811 23.687z"/></svg>